Coordinates
version=1
nRows=14
nColumns=24
inDegrees=yes

Units are S.I. units (second, meters, Newtons, ...)
If the header above contains a line with 'inDegrees', this indicates whether rotational values are in degrees (yes) or radians (no).

endheader
time	pelvis_tilt	pelvis_list	pelvis_rotation	pelvis_tx	pelvis_ty	pelvis_tz	lumbar_extension	lumbar_bending	lumbar_rotation	arm_flex_r	arm_add_r	arm_rot_r	elbow_flex_r	pro_sup_r	wrist_flex_r	wrist_dev_r	arm_flex_l	arm_add_l	arm_rot_l	elbow_flex_l	pro_sup_l	wrist_flex_l	wrist_dev_l
     22.01600000	    -15.24618881	     -1.67067711	      4.37529974	      1.19580447	      0.88171137	      0.15213337	     -7.22236584	     -3.28443151	      1.86037957	     14.89488611	    -18.87370297	     31.77098076	     77.09466561	     72.92993375	    -28.65551611	    -20.77417808	     13.97858110	    -11.32581002	     22.11183888	     16.35009702	     65.20936483	    -20.01374491	    -12.91734716
     22.02000000	    -15.24425594	     -1.69616460	      4.34730728	      1.19579706	      0.88187663	      0.15276676	     -7.22276444	     -3.30864955	      1.82552709	     15.05965033	    -18.60551052	     31.83636096	     76.29575104	     72.74200978	    -28.65551611	    -20.77417808	     13.95894557	    -11.42285725	     22.12880744	     16.30852254	     65.21743048	    -19.99446095	    -12.88701919
     22.02400000	    -15.26322871	     -1.66631002	      4.39055412	      1.19560749	      0.88176225	      0.15218918	     -7.23948764	     -3.28093427	      1.87696884	     15.04280409	    -18.71248648	     31.80325396	     76.04357789	     72.71349977	    -28.65551611	    -20.77417808	     13.97752626	    -11.32709917	     22.13720455	     16.37925097	     65.22464606	    -19.98966383	    -12.89123164
     22.02800000	    -15.26103497	     -1.67965000	      4.38672859	      1.19558901	      0.88186988	      0.15253244	     -7.23813529	     -3.29514787	      1.86927545	     15.14877509	    -18.52508611	     31.82096091	     75.35556629	     72.53976384	    -28.65551611	    -20.77417808	     14.00006136	    -11.34957406	     22.11757708	     16.27543132	     65.21968187	    -19.98548248	    -12.86239542
     22.03200000	    -15.28054621	     -1.65322013	      4.42085485	      1.19543043	      0.88173900	      0.15198167	     -7.25581188	     -3.26972167	      1.91114264	     15.13389802	    -18.62893545	     31.78691771	     75.10380296	     72.50996754	    -28.65551611	    -20.77417808	     14.01625113	    -11.27611647	     22.12973028	     16.34099919	     65.22889053	    -19.97926290	    -12.86595087
     22.03600000	    -15.27214275	     -1.64898677	      4.40750810	      1.19547625	      0.88172460	      0.15200407	     -7.24725081	     -3.26457348	      1.89774639	     15.21040667	    -18.50083459	     31.74267410	     74.49486025	     72.38513197	    -28.65551611	    -20.77417808	     14.00686972	    -11.27216235	     22.16052804	     16.25015809	     65.23276367	    -19.96333790	    -12.83297157
     22.04000000	    -15.28491907	     -1.66754086	      4.43490891	      1.19534926	      0.88184269	      0.15238967	     -7.26098988	     -3.28695974	      1.92108678	     15.27232810	    -18.37809393	     31.81600501	     73.90473370	     72.25089764	    -28.65551611	    -20.77417808	     14.06180395	    -11.30096856	     22.17880719	     16.22107794	     65.24411551	    -19.94132169	    -12.81088135
     22.04400000	    -15.30911932	     -1.64730010	      4.48814619	      1.19514660	      0.88173196	      0.15193514	     -7.28347385	     -3.27013773	      1.98083889	     15.21495965	    -18.49274592	     31.82418337	     73.64807858	     72.24011665	    -28.65551611	    -20.77417808	     14.10723258	    -11.22057484	     22.19516697	     16.30056858	     65.25660237	    -19.92254308	    -12.81739048
     22.04800000	    -15.32046509	     -1.61692965	      4.50246977	      1.19506261	      0.88159599	      0.15128799	     -7.29275893	     -3.23852444	      2.00362200	     15.22261055	    -18.57306167	     31.78193898	     73.29654570	     72.21892215	    -28.65551611	    -20.77417808	     14.09540666	    -11.13038380	     22.22872741	     16.34731034	     65.27428734	    -19.88064391	    -12.81885098
     22.05200000	    -15.29955018	     -1.64029668	      4.44528944	      1.19541019	      0.88168898	      0.15195142	     -7.27313063	     -3.25856695	      1.93843344	     15.36629051	    -18.26061969	     31.83247473	     72.49828663	     72.13076588	    -28.65551611	    -20.77417808	     14.03830982	    -11.24388922	     22.24238568	     16.17892482	     65.27143372	    -19.84162738	    -12.77962919
     22.05600000	    -15.32853231	     -1.62683042	      4.51140813	      1.19525288	      0.88160966	      0.15167321	     -7.30025228	     -3.25044638	      2.00924512	     15.31081471	    -18.35778066	     31.84989468	     72.25214261	     72.12221997	    -28.65551611	    -20.77417808	     14.09175342	    -11.19370168	     22.24561475	     16.25891272	     65.27818765	    -19.83640578	    -12.78559129
     22.06000000	    -15.35194523	     -1.59873102	      4.55060144	      1.19512607	      0.88149995	      0.15119820	     -7.32128030	     -3.22404172	      2.05609940	     15.29484086	    -18.42896007	     31.80825780	     71.92764882	     72.10717650	    -28.65551611	    -20.77417808	     14.11167742	    -11.11156346	     22.25513068	     16.30608386	     65.28329361	    -19.83323588	    -12.78646928
     22.06400000	    -15.43741466	     -1.66039811	      4.53744305	      1.19385397	      0.88214460	      0.15237322	     -7.41734390	     -3.28089344	      2.03486645	     15.46975383	    -18.28963736	     32.26158608	     71.37859576	     73.21613046	    -30.74314748	    -23.44527290	     14.38344140	    -11.22376433	     22.36411807	     16.09693763	     65.30004006	    -19.78009183	    -12.65510112
     22.06800000	    -15.45544655	     -1.63445468	      4.57773066	      1.19374260	      0.88200819	      0.15186885	     -7.43310138	     -3.25715344	      2.08240450	     15.44368553	    -18.39017258	     32.20076101	     71.11689296	     73.15800499	    -30.76742780	    -23.41981310	     14.39230458	    -11.14741064	     22.37012584	     16.16390682	     65.30648160	    -19.77827586	    -12.66312402
